HIERARCHY
ROOT Hips
{
	OFFSET 0.000000 0.000000 0.000000
	CHANNELS 6 Xposition Yposition Zposition Yrotation Xrotation Zrotation
	JOINT Chest
	{
		OFFSET 0.000000 10.364816 -1.151646
		CHANNELS 3 Yrotation Xrotation Zrotation
		JOINT Chest2
		{
			OFFSET 0.000000 11.517722 -0.000000
			CHANNELS 3 Yrotation Xrotation Zrotation
			JOINT Chest3
			{
				OFFSET 0.000000 10.515804 -0.000996
				CHANNELS 3 Yrotation Xrotation Zrotation
				JOINT Chest4
				{
					OFFSET 0.000000 10.504063 -0.000998
					CHANNELS 3 Yrotation Xrotation Zrotation
					JOINT Neck
					{
						OFFSET 0.000000 14.700996 0.000000
						CHANNELS 3 Yrotation Xrotation Zrotation
						JOINT Head
						{
							OFFSET 0.000000 9.779655 0.002144
							CHANNELS 3 Yrotation Xrotation Zrotation
							End Site
							{
								OFFSET 0.000000 18.151802 0.000288
							}
						}
					}
					JOINT RightCollar
					{
						OFFSET -3.200323 8.241253 -0.000000
						CHANNELS 3 Yrotation Xrotation Zrotation
						JOINT RightShoulder
						{
							OFFSET -14.963747 0.000000 0.000000
							CHANNELS 3 Yrotation Xrotation Zrotation
							JOINT RightElbow
							{
								OFFSET -31.975845 0.000000 0.000000
								CHANNELS 3 Yrotation Xrotation Zrotation
								JOINT RightWrist
								{
									OFFSET -26.149033 0.000000 0.000000
									CHANNELS 3 Yrotation Xrotation Zrotation
									End Site
									{
										OFFSET -19.551819 0.000000 0.000000
									}
								}
							}
						}
					}
					JOINT LeftCollar
					{
						OFFSET 3.200323 8.241253 -0.000000
						CHANNELS 3 Yrotation Xrotation Zrotation
						JOINT LeftShoulder
						{
							OFFSET 14.963747 0.000000 0.000000
							CHANNELS 3 Yrotation Xrotation Zrotation
							JOINT LeftElbow
							{
								OFFSET 31.975845 0.000000 0.000000
								CHANNELS 3 Yrotation Xrotation Zrotation
								JOINT LeftWrist
								{
									OFFSET 26.149033 0.000000 0.000000
									CHANNELS 3 Yrotation Xrotation Zrotation
									End Site
									{
										OFFSET 19.551819 0.000000 0.000000
									}
								}
							}
						}
					}
				}
			}
		}
	}
	JOINT RightHip
	{
		OFFSET -8.525852 0.003604 -0.000400
		CHANNELS 3 Yrotation Xrotation Zrotation
		JOINT RightKnee
		{
			OFFSET 0.000000 -44.087433 -0.000236
			CHANNELS 3 Yrotation Xrotation Zrotation
			JOINT RightAnkle
			{
				OFFSET 0.000000 -43.085331 -0.000397
				CHANNELS 3 Yrotation Xrotation Zrotation
				JOINT RightToe
				{
					OFFSET 0.000000 -7.938347 18.057957
					CHANNELS 3 Yrotation Xrotation Zrotation
					End Site
					{
						OFFSET 0.000000 -1.698112 7.444336
					}
				}
			}
		}
	}
	JOINT LeftHip
	{
		OFFSET 8.525852 0.001277 -0.000142
		CHANNELS 3 Yrotation Xrotation Zrotation
		JOINT LeftKnee
		{
			OFFSET 0.000000 -44.087433 -0.000236
			CHANNELS 3 Yrotation Xrotation Zrotation
			JOINT LeftAnkle
			{
				OFFSET 0.000000 -43.085323 -0.000397
				CHANNELS 3 Yrotation Xrotation Zrotation
				JOINT LeftToe
				{
					OFFSET 0.000000 -7.938347 18.057957
					CHANNELS 3 Yrotation Xrotation Zrotation
					End Site
					{
						OFFSET 0.000000 -1.698112 7.444336
					}
				}
			}
		}
	}
}
MOTION
Frames: 11
Frame Time: 0.004184
0.000000 96.887840 0.000000 -98.883019 2.186606 0.060606 -0.611543 0.682284 0.090858 -0.276136 -5.523223 0.041472 -0.274859 0.297142 0.013440 -0.205107 6.059533 0.010252 1.704161 17.653312 1.267162 2.715255 -3.250915 1.762158 3.206701 -4.760862 14.272551 8.430218 -2.423260 72.634219 7.944761 10.070274 3.058903 -3.882893 2.841593 0.804174 -3.150259 -2.685672 -11.091672 2.396384 -4.885631 -78.305196 -6.775008 15.823938 -3.682142 7.000087 2.663330 3.349862 -4.176203 0.004734 0.582830 0.579723 0.615204 0.197045 -1.186271 -2.976214 -0.459304 0.000000 0.000002 -0.000000 0.306189 0.804960 -0.273360 0.698722 -0.162288 0.185802 1.018793 -2.435265 -0.614400 -0.000037 -0.036300 0.043186
-0.002712 96.887474 -0.001125 -98.895033 2.185985 0.054487 -0.611680 0.680163 0.095951 -0.276432 -5.524173 0.043743 -0.275153 0.296192 0.015681 -0.205160 6.058822 0.011942 1.715689 17.634275 1.250913 2.741974 -3.286065 1.728073 3.200424 -4.750966 14.270824 8.430271 -2.420126 72.636658 7.936000 9.954399 3.060961 -3.875339 2.831963 0.803396 -3.148645 -2.675152 -11.085815 2.403411 -4.880132 -78.310380 -6.773747 15.783987 -3.677090 6.969766 2.664531 3.368139 -4.171830 0.005485 0.587538 0.595503 0.617506 0.200717 -1.192948 -2.978578 -0.465519 -0.000000 -0.000001 0.000000 0.305098 0.808433 -0.262735 0.720940 -0.163591 0.177477 1.006056 -2.431611 -0.611116 -0.000098 -0.074463 0.088868
-0.005439 96.887085 -0.002302 -98.906931 2.185420 0.048191 -0.611864 0.677948 0.101136 -0.276756 -5.525164 0.046056 -0.275475 0.295201 0.017961 -0.205227 6.058079 0.013661 1.726900 17.615594 1.234730 2.768095 -3.320534 1.694213 3.194087 -4.740996 14.269156 8.430681 -2.417082 72.639075 7.926989 9.838877 3.062991 -3.867451 2.822417 0.802634 -3.146995 -2.664458 -11.079955 2.410568 -4.874938 -78.315653 -6.772323 15.747186 -3.671926 6.939731 2.666271 3.386467 -4.167423 0.006271 0.592427 0.611297 0.619703 0.204465 -1.199749 -2.980918 -0.471853 -0.000001 0.000003 -0.000000 0.303958 0.811883 -0.251748 0.743086 -0.164959 0.168861 0.993293 -2.427846 -0.607738 -0.000192 -0.113933 0.136300
-0.008171 96.886681 -0.003511 -98.918775 2.184889 0.041796 -0.612078 0.675681 0.106373 -0.277094 -5.526177 0.048391 -0.275814 0.294186 0.020262 -0.205306 6.057316 0.015396 1.737932 17.597135 1.218588 2.793880 -3.354610 1.660477 3.187718 -4.730985 14.267529 8.431292 -2.414081 72.641480 7.917836 9.723565 3.065014 -3.859373 2.812914 0.801890 -3.145335 -2.653668 -11.074101 2.417808 -4.869876 -78.320973 -6.770812 15.712186 -3.666699 6.909851 2.668333 3.404820 -4.163005 0.007073 0.597418 0.627095 0.621842 0.208259 -1.206624 -2.983248 -0.478248 0.000000 -0.000002 -0.000000 0.302784 0.815320 -0.240555 0.765187 -0.166366 0.160080 0.980515 -2.424026 -0.604310 -0.000315 -0.154134 0.184732
-0.010902 96.886269 -0.004724 -98.930618 2.184370 0.035372 -0.612293 0.673400 0.111624 -0.277439 -5.527197 0.050733 -0.276156 0.293165 0.022569 -0.205388 6.056549 0.017136 1.748927 17.578723 1.202458 2.819602 -3.388583 1.626768 3.181338 -4.720962 14.265895 8.431956 -2.411092 72.643884 7.908654 9.608304 3.067062 -3.851243 2.803430 0.801165 -3.143671 -2.642853 -11.068242 2.425063 -4.864850 -78.326314 -6.769281 15.677642 -3.661465 6.880004 2.670465 3.423167 -4.158577 0.007880 0.602435 0.642893 0.623965 0.212064 -1.213518 -2.985570 -0.484660 -0.000001 -0.000000 -0.000000 0.301604 0.818755 -0.229310 0.787275 -0.167778 0.151257 0.967731 -2.420183 -0.600866 -0.000468 -0.194524 0.233418
-0.013633 96.885864 -0.005922 -98.942469 2.183814 0.029002 -0.612503 0.671146 0.116849 -0.277773 -5.528207 0.053064 -0.276486 0.292159 0.024867 -0.205460 6.055792 0.018868 1.760024 17.560201 1.186314 2.845533 -3.422734 1.592986 3.174975 -4.710963 14.264243 8.432520 -2.408088 72.646295 7.899547 9.492939 3.069156 -3.843202 2.793922 0.800459 -3.142015 -2.632086 -11.062386 2.432273 -4.859759 -78.331622 -6.767796 15.642178 -3.656278 6.850066 2.672452 3.441476 -4.154162 0.008678 0.607401 0.658692 0.626117 0.215846 -1.220373 -2.987895 -0.491039 -0.000001 -0.000003 0.000000 0.300442 0.822198 -0.218170 0.809387 -0.169167 0.142515 0.954958 -2.416364 -0.597450 -0.000650 -0.234546 0.281605
-0.016353 96.885490 -0.007091 -98.954401 2.183233 0.022757 -0.612676 0.668963 0.122009 -0.278092 -5.529183 0.055366 -0.276805 0.291180 0.027135 -0.205527 6.055057 0.020580 1.771366 17.541430 1.170129 2.871943 -3.457345 1.559029 3.168651 -4.701019 14.262543 8.432821 -2.405005 72.648713 7.890624 9.377320 3.071322 -3.835386 2.784363 0.799772 -3.140381 -2.621435 -11.056539 2.439385 -4.854474 -78.336867 -6.766426 15.604479 -3.651184 6.819899 2.674060 3.459716 -4.149770 0.009454 0.612237 0.674482 0.628341 0.219576 -1.227137 -2.990246 -0.497337 0.000002 -0.000003 0.000001 0.299315 0.825667 -0.207291 0.831551 -0.170503 0.133976 0.942205 -2.412632 -0.594099 -0.000854 -0.273624 0.328549
-0.019065 96.885124 -0.008194 -98.966456 2.182587 0.016716 -0.612792 0.666889 0.127066 -0.278381 -5.530112 0.057621 -0.277092 0.290251 0.029361 -0.205569 6.054359 0.022258 1.783096 17.522248 1.153874 2.899105 -3.492710 1.524796 3.162395 -4.691164 14.260764 8.432721 -2.401829 72.651158 7.881989 9.261293 3.073587 -3.827941 2.774713 0.799104 -3.138774 -2.610979 -11.050696 2.446342 -4.848861 -78.342017 -6.765239 15.563170 -3.646244 6.789384 2.675058 3.477852 -4.145404 0.010192 0.616868 0.690263 0.630682 0.223217 -1.233758 -2.992628 -0.503505 0.000001 -0.000000 0.000001 0.298258 0.829168 -0.196825 0.853802 -0.171754 0.125766 0.929484 -2.409019 -0.590853 -0.001076 -0.311207 0.373498
-0.021755 96.884819 -0.009222 -98.978675 2.181847 0.010949 -0.612831 0.664963 0.131980 -0.278625 -5.530976 0.059812 -0.277332 0.289389 0.031528 -0.205590 6.053713 0.023891 1.795352 17.502507 1.137524 2.927288 -3.529105 1.490188 3.156231 -4.681429 14.258886 8.432059 -2.398490 72.653624 7.873758 9.144709 3.075978 -3.821006 2.764946 0.798453 -3.137214 -2.600789 -11.044867 2.453086 -4.842833 -78.347030 -6.764300 15.516904 -3.641511 6.758379 2.675222 3.495843 -4.141082 0.010879 0.621217 0.706030 0.633184 0.226741 -1.240183 -2.995041 -0.509494 0.000001 -0.000001 0.000000 0.297286 0.832713 -0.186933 0.876165 -0.172893 0.118005 0.916806 -2.405566 -0.587750 -0.001310 -0.346738 0.415705
-0.024421 96.884552 -0.010164 -98.991079 2.181005 0.005543 -0.612771 0.663228 0.136711 -0.278819 -5.531750 0.061923 -0.277527 0.288613 0.033619 -0.205575 6.053128 0.025468 1.808277 17.482040 1.121050 2.956766 -3.566812 1.455099 3.150182 -4.671847 14.256870 8.430684 -2.394969 72.656124 7.866027 9.027413 3.078519 -3.814716 2.755020 0.797819 -3.135708 -2.590937 -11.039046 2.459548 -4.836264 -78.351873 -6.763679 15.464322 -3.637040 6.726762 2.674316 3.513659 -4.136813 0.011500 0.625205 0.721778 0.635891 0.230112 -1.246358 -2.997520 -0.515255 -0.000001 0.000002 -0.000001 0.296426 0.836314 -0.177766 0.898676 -0.173888 0.110818 0.904183 -2.402328 -0.584830 -0.001546 -0.379659 0.454421
-0.027061 96.884377 -0.010980 -99.003763 2.180019 0.000560 -0.612588 0.661722 0.141222 -0.278949 -5.532426 0.063935 -0.277655 0.287937 0.035617 -0.205520 6.052621 0.026975 1.822016 17.460702 1.104424 2.987811 -3.606119 1.419428 3.144272 -4.662454 14.254698 8.428441 -2.391227 72.658678 7.858918 8.909251 3.081239 -3.809216 2.744907 0.797197 -3.134265 -2.581493 -11.033243 2.465680 -4.829040 -78.356504 -6.763449 15.404088 -3.632885 6.694395 2.672115 3.531261 -4.132617 0.012041 0.628755 0.737504 0.638847 0.233298 -1.252224 -3.000051 -0.520741 -0.000000 -0.000002 -0.000001 0.295703 0.839984 -0.169482 0.921362 -0.174710 0.104328 0.891627 -2.399345 -0.582134 -0.001772 -0.409404 0.488896
